<?xml version="1.0" standalone="no"?>
<!DOCTYPE svg PUBLIC "-//W3C//DTD SVG 1.1//EN" "http://www.w3.org/Graphics/SVG/1.1/DTD/svg11.dtd">
<!--Generator: Xara Designer (www.xara.com), SVG filter version: 6.6.0.9-->
<svg fill="none" fill-rule="evenodd" stroke="black" stroke-width="0.501" stroke-linejoin="bevel" stroke-miterlimit="10" font-family="Times New Roman" font-size="16" style="font-variant-ligatures:none" xmlns:xlink="http://www.w3.org/1999/xlink" xmlns="http://www.w3.org/2000/svg" version="1.1" overflow="visible" width="34.715pt" height="21.532pt" viewBox="256.438 -72.175 34.715 21.532">
 <defs>
  <style type="text/css">@import url('https://themes.googleusercontent.com/fonts/css?family=Open Sans:400,600');</style>
 </defs>
 <g id="Layer 1" transform="scale(1 -1)">
  <g id="Group">
   <path d="M 286.658,63.443 L 275.597,69.689 L 275.417,69.457 L 286.615,63.211 L 286.658,63.443 Z" stroke-linejoin="miter" stroke="none" fill="#363030" marker-start="none" marker-end="none"/>
   <path d="M 263.849,61.147 L 258.365,65.44 L 257.629,65.518 L 256.438,55.522 L 257.174,55.413 L 263.504,58.327 L 264.021,58.295 L 263.849,56.619 L 264.632,56.494 L 264.773,57.089 L 266.371,56.917 L 266.402,56.306 L 267.139,56.149 L 266.763,52.718 L 281.49,50.979 L 282.164,56.478 L 282.816,61.762 L 278.639,62.275 L 268.047,63.513 L 267.875,62.385 L 267.06,62.432 L 266.966,61.868 L 265.306,62.056 L 265.353,62.604 L 264.616,62.714 L 264.35,61.069 L 263.849,61.147 Z" fill="#363030" stroke="none" stroke-linejoin="miter" marker-start="none" marker-end="none"/>
   <ellipse rx="4.475" ry="4.475" transform="translate(284.836 59.541) rotate(-25.1221)" stroke-linejoin="miter" stroke="none" fill="#363030"/>
   <path d="M 289.903,55.768 C 291.985,58.564 291.407,62.525 288.61,64.608 C 285.814,66.69 281.853,66.112 279.77,63.315 C 277.688,60.519 278.266,56.558 281.063,54.475 C 283.859,52.393 287.82,52.971 289.903,55.768 Z M 284.122,53.73 C 283.257,54.152 282.896,55.2 283.319,56.065 C 283.741,56.93 284.788,57.291 285.653,56.868 C 286.519,56.446 286.878,55.399 286.456,54.533 C 286.033,53.668 284.987,53.307 284.122,53.73 Z M 280.386,55.92 C 279.52,56.342 279.16,57.389 279.582,58.255 C 280.005,59.12 281.052,59.48 281.917,59.057 C 282.783,58.635 283.143,57.588 282.72,56.722 C 282.298,55.858 281.251,55.497 280.386,55.92 Z M 287.654,55.92 C 286.789,56.342 286.428,57.389 286.851,58.255 C 287.273,59.12 288.32,59.48 289.186,59.058 C 290.051,58.635 290.411,57.588 289.989,56.723 C 289.566,55.858 288.519,55.498 287.654,55.92 Z M 283.688,57.931 C 283.543,58.148 283.6,58.443 283.817,58.588 C 284.033,58.734 284.327,58.677 284.474,58.46 C 284.619,58.244 284.562,57.95 284.346,57.803 C 284.129,57.658 283.834,57.715 283.688,57.931 Z M 285.199,57.978 C 285.054,58.195 285.111,58.49 285.327,58.636 C 285.544,58.782 285.839,58.725 285.985,58.508 C 286.131,58.291 286.073,57.997 285.856,57.851 C 285.64,57.704 285.346,57.762 285.199,57.978 Z M 284.323,59.179 C 284.117,59.453 284.174,59.843 284.448,60.048 C 284.723,60.254 285.112,60.197 285.318,59.923 C 285.523,59.649 285.467,59.259 285.193,59.053 C 284.918,58.847 284.528,58.904 284.323,59.179 Z M 285.978,59.253 C 285.832,59.47 285.889,59.764 286.106,59.911 C 286.322,60.056 286.617,59.999 286.763,59.782 C 286.909,59.566 286.852,59.271 286.635,59.125 C 286.419,58.98 286.124,59.037 285.978,59.253 Z M 282.91,59.301 C 282.764,59.517 282.821,59.812 283.038,59.958 C 283.254,60.103 283.549,60.046 283.695,59.83 C 283.841,59.613 283.784,59.318 283.567,59.172 C 283.351,59.027 283.056,59.084 282.91,59.301 Z M 280.487,60.025 C 279.621,60.447 279.261,61.494 279.684,62.36 C 280.106,63.224 281.153,63.585 282.018,63.163 C 282.884,62.74 283.244,61.693 282.821,60.828 C 282.399,59.962 281.352,59.602 280.487,60.025 Z M 287.756,60.025 C 286.89,60.448 286.53,61.494 286.953,62.36 C 287.375,63.225 288.422,63.585 289.287,63.163 C 290.153,62.74 290.513,61.693 290.091,60.828 C 289.668,59.962 288.621,59.603 287.756,60.025 Z M 283.688,60.575 C 283.543,60.792 283.6,61.086 283.816,61.232 C 284.033,61.379 284.327,61.321 284.474,61.105 C 284.619,60.888 284.562,60.593 284.346,60.448 C 284.129,60.301 283.834,60.358 283.688,60.575 Z M 285.199,60.623 C 285.053,60.839 285.111,61.134 285.327,61.28 C 285.544,61.426 285.839,61.368 285.984,61.152 C 286.13,60.935 286.073,60.64 285.856,60.495 C 285.64,60.349 285.345,60.406 285.199,60.623 Z M 284.02,62.215 C 283.154,62.637 282.794,63.685 283.216,64.55 C 283.639,65.415 284.686,65.775 285.551,65.353 C 286.416,64.93 286.777,63.883 286.354,63.018 C 285.932,62.153 284.885,61.792 284.02,62.215 Z" fill="#f1664a" stroke-linejoin="miter" stroke="none" marker-start="none" marker-end="none"/>
   <ellipse rx="4.475" ry="4.474" transform="translate(273.282 65.858) rotate(-25.1221)" stroke-linejoin="miter" stroke="none" fill="#363030"/>
   <path d="M 278.349,62.084 C 280.431,64.881 279.853,68.841 277.056,70.924 C 274.26,73.007 270.299,72.428 268.216,69.632 C 266.133,66.835 266.712,62.875 269.509,60.792 C 272.305,58.709 276.265,59.288 278.349,62.084 Z M 272.567,60.046 C 271.703,60.469 271.342,61.516 271.765,62.381 C 272.187,63.247 273.234,63.607 274.099,63.184 C 274.965,62.762 275.324,61.715 274.902,60.849 C 274.479,59.984 273.433,59.624 272.567,60.046 Z M 268.832,62.236 C 267.966,62.659 267.606,63.706 268.028,64.571 C 268.451,65.437 269.498,65.797 270.363,65.374 C 271.228,64.952 271.589,63.905 271.166,63.039 C 270.744,62.174 269.697,61.814 268.832,62.236 Z M 276.1,62.236 C 275.235,62.659 274.874,63.706 275.297,64.571 C 275.719,65.437 276.766,65.797 277.632,65.374 C 278.497,64.952 278.857,63.905 278.435,63.039 C 278.012,62.174 276.965,61.814 276.1,62.236 Z M 272.134,64.248 C 271.989,64.464 272.046,64.759 272.262,64.905 C 272.479,65.051 272.773,64.994 272.919,64.777 C 273.065,64.56 273.008,64.266 272.791,64.119 C 272.575,63.974 272.28,64.031 272.134,64.248 Z M 273.645,64.295 C 273.5,64.512 273.557,64.807 273.773,64.952 C 273.99,65.098 274.285,65.041 274.431,64.824 C 274.577,64.608 274.519,64.313 274.302,64.168 C 274.086,64.021 273.792,64.079 273.645,64.295 Z M 272.769,65.495 C 272.563,65.769 272.62,66.159 272.894,66.365 C 273.169,66.57 273.558,66.514 273.764,66.239 C 273.969,65.965 273.913,65.575 273.639,65.37 C 273.364,65.164 272.974,65.221 272.769,65.495 Z M 274.424,65.57 C 274.278,65.786 274.335,66.081 274.552,66.227 C 274.768,66.373 275.063,66.315 275.209,66.099 C 275.355,65.883 275.298,65.587 275.081,65.442 C 274.865,65.296 274.57,65.354 274.424,65.57 Z M 271.356,65.617 C 271.21,65.833 271.267,66.129 271.484,66.274 C 271.7,66.42 271.995,66.362 272.141,66.146 C 272.287,65.93 272.23,65.635 272.013,65.489 C 271.797,65.343 271.502,65.401 271.356,65.617 Z M 268.933,66.341 C 268.067,66.764 267.707,67.811 268.129,68.676 C 268.552,69.541 269.599,69.902 270.464,69.479 C 271.33,69.056 271.69,68.009 271.267,67.144 C 270.845,66.279 269.797,65.919 268.933,66.341 Z M 276.202,66.341 C 275.336,66.764 274.976,67.811 275.399,68.676 C 275.821,69.541 276.868,69.902 277.733,69.479 C 278.599,69.057 278.959,68.01 278.537,67.144 C 278.114,66.279 277.067,65.919 276.202,66.341 Z M 272.134,66.892 C 271.989,67.108 272.046,67.403 272.262,67.548 C 272.479,67.695 272.773,67.637 272.919,67.421 C 273.065,67.204 273.008,66.91 272.791,66.764 C 272.575,66.618 272.28,66.675 272.134,66.892 Z M 273.645,66.94 C 273.499,67.156 273.557,67.45 273.773,67.597 C 273.99,67.742 274.285,67.685 274.43,67.469 C 274.576,67.252 274.519,66.957 274.302,66.811 C 274.086,66.665 273.791,66.723 273.645,66.94 Z M 272.466,68.532 C 271.6,68.954 271.24,70.001 271.662,70.866 C 272.085,71.732 273.132,72.092 273.997,71.67 C 274.862,71.247 275.223,70.2 274.8,69.335 C 274.378,68.469 273.33,68.109 272.466,68.532 Z" fill="#f1664a" stroke-linejoin="miter" stroke="none" marker-start="none" marker-end="none"/>
   <path d="M 276.448,51.575 C 275.838,50.227 273.457,50.321 272.94,51.989 L 275.217,52.185 L 276.448,51.575 Z" stroke="none" stroke-linejoin="miter" fill="#363030" marker-start="none" marker-end="none"/>
   <ellipse rx="0.632" ry="0.632" transform="translate(273.273 65.868) rotate(-14.1901)" fill="#ffe7bd" stroke="none" stroke-linejoin="miter"/>
   <ellipse rx="0.482" ry="0.482" transform="translate(272.523 67.159) rotate(-14.2665) skewX(-0.115051)" fill="#ffe7bd" stroke="none" stroke-linejoin="miter"/>
   <ellipse rx="0.482" ry="0.483" transform="translate(274.043 67.196) rotate(-14.1514)" fill="#ffe7bd" stroke="none" stroke-linejoin="miter"/>
   <ellipse rx="0.482" ry="0.483" transform="translate(274.82 65.839) rotate(-14.1514)" fill="#ffe7bd" stroke="none" stroke-linejoin="miter"/>
   <ellipse rx="0.482" ry="0.482" transform="translate(274.043 64.555) rotate(-14.2665) skewX(-0.115051)" fill="#ffe7bd" stroke="none" stroke-linejoin="miter"/>
   <ellipse rx="0.482" ry="0.482" transform="translate(272.523 64.511) rotate(-14.1514)" fill="#ffe7bd" stroke="none" stroke-linejoin="miter"/>
   <ellipse rx="0.482" ry="0.483" transform="translate(271.743 65.883) rotate(-14.1514)" fill="#ffe7bd" stroke="none" stroke-linejoin="miter"/>
   <ellipse rx="0.632" ry="0.632" transform="translate(284.828 59.556) rotate(-14.1901)" fill="#ffe7bd" stroke="none" stroke-linejoin="miter"/>
   <ellipse rx="0.483" ry="0.482" transform="translate(284.078 60.847) rotate(-14.1224)" fill="#ffe7bd" stroke="none" stroke-linejoin="miter"/>
   <ellipse rx="0.482" ry="0.483" transform="translate(285.598 60.884) rotate(-14.1514)" fill="#ffe7bd" stroke="none" stroke-linejoin="miter"/>
   <ellipse rx="0.482" ry="0.482" transform="translate(286.375 59.528) rotate(-14.2665) skewX(-0.115051)" fill="#ffe7bd" stroke="none" stroke-linejoin="miter"/>
   <ellipse rx="0.482" ry="0.483" transform="translate(285.598 58.243) rotate(-14.1514)" fill="#ffe7bd" stroke="none" stroke-linejoin="miter"/>
   <ellipse rx="0.483" ry="0.483" transform="translate(284.078 58.199) rotate(-14.1224)" fill="#ffe7bd" stroke="none" stroke-linejoin="miter"/>
   <ellipse rx="0.482" ry="0.482" transform="translate(283.298 59.572) rotate(-14.2665) skewX(-0.115051)" fill="#ffe7bd" stroke="none" stroke-linejoin="miter"/>
   <path d="M 265.316,62.063 C 265.288,62.083 265.282,62.125 265.302,62.153 C 265.322,62.181 265.364,62.187 265.392,62.167 C 265.923,61.853 266.416,61.482 266.835,61.028 C 266.276,61.285 265.771,61.651 265.316,62.063 Z" stroke-width="0.5" stroke="none" fill="#f1664a" fill-rule="evenodd" marker-start="none" marker-end="none" fill-opacity="1.000000"/>
   <path d="M 265.249,61.54 C 265.221,61.56 265.215,61.602 265.235,61.63 C 265.255,61.658 265.297,61.664 265.325,61.644 C 265.856,61.329 266.349,60.961 266.768,60.506 C 266.209,60.763 265.705,61.129 265.249,61.54 Z" stroke-width="0.5" stroke="none" fill="#f1664a" fill-rule="evenodd" marker-start="none" marker-end="none" fill-opacity="1.000000"/>
   <path d="M 265.184,61.017 C 265.156,61.037 265.15,61.079 265.17,61.107 C 265.19,61.135 265.232,61.141 265.26,61.121 C 265.791,60.807 266.284,60.436 266.703,59.982 C 266.144,60.239 265.639,60.605 265.184,61.017 Z" stroke-width="0.5" stroke="none" fill="#f1664a" fill-rule="evenodd" marker-start="none" marker-end="none" fill-opacity="1.000000"/>
   <path d="M 265.118,60.494 C 265.09,60.514 265.084,60.556 265.104,60.584 C 265.124,60.612 265.166,60.618 265.194,60.598 C 265.725,60.284 266.218,59.913 266.637,59.459 C 266.078,59.716 265.573,60.082 265.118,60.494 Z" stroke-width="0.5" stroke="none" fill="#f1664a" fill-rule="evenodd" marker-start="none" marker-end="none" fill-opacity="1.000000"/>
   <path d="M 265.051,59.971 C 265.023,59.991 265.017,60.033 265.037,60.061 C 265.057,60.089 265.099,60.095 265.127,60.075 C 265.658,59.76 266.151,59.392 266.571,58.936 C 266.013,59.193 265.505,59.559 265.051,59.971 Z" stroke-width="0.5" stroke="none" fill="#f1664a" fill-rule="evenodd" marker-start="none" marker-end="none" fill-opacity="1.000000"/>
   <path d="M 264.985,59.448 C 264.957,59.468 264.951,59.51 264.971,59.538 C 264.991,59.566 265.033,59.572 265.061,59.552 C 265.592,59.238 266.085,58.867 266.504,58.413 C 265.945,58.67 265.44,59.036 264.985,59.448 Z" stroke-width="0.5" stroke="none" fill="#f1664a" fill-rule="evenodd" marker-start="none" marker-end="none" fill-opacity="1.000000"/>
   <path d="M 264.919,58.924 C 264.891,58.944 264.885,58.986 264.905,59.014 C 264.925,59.042 264.967,59.048 264.995,59.028 C 265.526,58.713 266.019,58.345 266.438,57.89 C 265.879,58.147 265.375,58.513 264.919,58.924 Z" stroke-width="0.5" stroke="none" fill="#f1664a" fill-rule="evenodd" marker-start="none" marker-end="none" fill-opacity="1.000000"/>
   <path d="M 264.854,58.401 C 264.826,58.421 264.82,58.463 264.84,58.491 C 264.86,58.519 264.902,58.525 264.93,58.505 C 265.461,58.191 265.954,57.82 266.373,57.366 C 265.814,57.623 265.309,57.989 264.854,58.401 Z" stroke-width="0.5" stroke="none" fill="#f1664a" fill-rule="evenodd" marker-start="none" marker-end="none" fill-opacity="1.000000"/>
   <path d="M 264.787,57.878 C 264.759,57.898 264.753,57.94 264.773,57.968 C 264.793,57.996 264.835,58.002 264.863,57.982 C 265.394,57.667 265.887,57.299 266.306,56.844 C 265.747,57.101 265.243,57.467 264.787,57.878 Z" stroke-width="0.5" stroke="none" fill="#f1664a" fill-rule="evenodd" marker-start="none" marker-end="none" fill-opacity="1.000000"/>
   <path d="M 275.303,57.356 L 274.786,53.47 L 268.754,54.191 L 269.208,58.061 L 275.303,57.356 Z" fill="#ffe7bd" stroke="none" stroke-linejoin="miter" marker-start="none" marker-end="none"/>
   <ellipse rx="1.551" ry="1.551" transform="translate(272.947 55.766) rotate(35.1342)" stroke="#363030" fill="#f1664a" stroke-linejoin="miter"/>
   <path d="M 273.382,54.652 L 273.124,55.134 L 272.871,55.618 L 272.641,56.111 L 272.511,56.649 L 272.815,56.187 L 273.021,55.682 L 273.204,55.168 L 273.382,54.652 Z" stroke-width="0.5" stroke="none" fill="#ffe7bd" fill-rule="evenodd" marker-start="none" marker-end="none" fill-opacity="1.000000"/>
   <ellipse rx="0.491" ry="0.491" transform="translate(280.107 53.157) rotate(22.4943)" stroke="none" fill="#ffe7bd" stroke-linejoin="miter"/>
   <ellipse rx="0.428" ry="0.428" transform="translate(278.645 53.307) rotate(22.4965)" stroke="none" fill="#ffe7bd" stroke-linejoin="miter"/>
   <ellipse rx="0.207" ry="0.208" transform="translate(269.592 57.683) rotate(41.2898) skewX(0.181445)" fill="#363030" stroke-linejoin="miter" stroke="none"/>
   <ellipse rx="0.207" ry="0.208" transform="translate(274.978 57.099) rotate(41.2898) skewX(0.181445)" fill="#363030" stroke-linejoin="miter" stroke="none"/>
   <ellipse rx="0.208" ry="0.207" transform="translate(274.562 53.785) rotate(41.1083) skewX(-0.181445)" fill="#363030" stroke-linejoin="miter" stroke="none"/>
   <ellipse rx="0.207" ry="0.207" transform="translate(269.176 54.461) rotate(40.9005) skewX(-0.389282)" fill="#363030" stroke-linejoin="miter" stroke="none"/>
  </g>
 </g>
</svg>
