<?xml version="1.0" standalone="no"?>
<!DOCTYPE svg PUBLIC "-//W3C//DTD SVG 1.1//EN" "http://www.w3.org/Graphics/SVG/1.1/DTD/svg11.dtd">
<!--Generator: Xara Designer (www.xara.com), SVG filter version: 6.6.0.9-->
<svg fill="none" fill-rule="evenodd" stroke="black" stroke-width="0.501" stroke-linejoin="bevel" stroke-miterlimit="10" font-family="Times New Roman" font-size="16" style="font-variant-ligatures:none" xmlns:xlink="http://www.w3.org/1999/xlink" xmlns="http://www.w3.org/2000/svg" version="1.1" overflow="visible" width="34.715pt" height="21.532pt" viewBox="256.438 -44.987 34.715 21.532">
 <defs>
  <style type="text/css">@import url('https://themes.googleusercontent.com/fonts/css?family=Open Sans:400,600');</style>
 </defs>
 <g id="Layer 1" transform="scale(1 -1)">
  <path d="M 286.658,36.255 L 275.597,42.501 L 275.417,42.269 L 286.615,36.023 L 286.658,36.255 Z" stroke-linejoin="miter" stroke="none" fill="#363030" marker-start="none" marker-end="none"/>
  <path d="M 263.849,33.959 L 258.365,38.252 L 257.629,38.33 L 256.438,28.334 L 257.174,28.225 L 263.504,31.139 L 264.021,31.107 L 263.849,29.431 L 264.632,29.306 L 264.773,29.901 L 266.371,29.729 L 266.402,29.118 L 267.139,28.961 L 266.763,25.53 L 281.49,23.791 L 282.164,29.29 L 282.816,34.574 L 278.639,35.087 L 268.047,36.325 L 267.875,35.197 L 267.06,35.244 L 266.966,34.68 L 265.306,34.868 L 265.353,35.416 L 264.616,35.526 L 264.35,33.881 L 263.849,33.959 Z" fill="#363030" stroke="none" stroke-linejoin="miter" marker-start="none" marker-end="none"/>
  <ellipse rx="4.475" ry="4.475" transform="translate(284.836 32.353) rotate(-25.1221)" stroke-linejoin="miter" stroke="none" fill="#363030"/>
  <path d="M 289.903,28.58 C 291.985,31.376 291.407,35.337 288.61,37.42 C 285.814,39.502 281.853,38.924 279.77,36.127 C 277.688,33.331 278.266,29.37 281.063,27.287 C 283.859,25.205 287.82,25.783 289.903,28.58 Z M 284.122,26.542 C 283.257,26.964 282.896,28.012 283.319,28.877 C 283.741,29.742 284.788,30.103 285.653,29.68 C 286.519,29.258 286.878,28.211 286.456,27.345 C 286.033,26.48 284.987,26.119 284.122,26.542 Z M 280.386,28.732 C 279.52,29.154 279.16,30.201 279.582,31.067 C 280.005,31.932 281.052,32.292 281.917,31.869 C 282.783,31.447 283.143,30.4 282.72,29.534 C 282.298,28.67 281.251,28.309 280.386,28.732 Z M 287.654,28.732 C 286.789,29.154 286.428,30.201 286.851,31.067 C 287.273,31.932 288.32,32.292 289.186,31.87 C 290.051,31.447 290.411,30.4 289.989,29.535 C 289.566,28.67 288.519,28.31 287.654,28.732 Z M 283.688,30.743 C 283.543,30.96 283.6,31.255 283.817,31.4 C 284.033,31.546 284.327,31.489 284.474,31.272 C 284.619,31.056 284.562,30.762 284.346,30.615 C 284.129,30.47 283.834,30.527 283.688,30.743 Z M 285.199,30.79 C 285.054,31.007 285.111,31.302 285.327,31.448 C 285.544,31.594 285.839,31.537 285.985,31.32 C 286.131,31.103 286.073,30.809 285.856,30.663 C 285.64,30.516 285.346,30.574 285.199,30.79 Z M 284.323,31.991 C 284.117,32.265 284.174,32.655 284.448,32.86 C 284.723,33.066 285.112,33.009 285.318,32.735 C 285.523,32.461 285.467,32.071 285.193,31.865 C 284.918,31.659 284.528,31.716 284.323,31.991 Z M 285.978,32.065 C 285.832,32.282 285.889,32.576 286.106,32.723 C 286.322,32.868 286.617,32.811 286.763,32.594 C 286.909,32.378 286.852,32.083 286.635,31.937 C 286.419,31.792 286.124,31.849 285.978,32.065 Z M 282.91,32.113 C 282.764,32.329 282.821,32.624 283.038,32.77 C 283.254,32.915 283.549,32.858 283.695,32.642 C 283.841,32.425 283.784,32.13 283.567,31.984 C 283.351,31.839 283.056,31.896 282.91,32.113 Z M 280.487,32.837 C 279.621,33.259 279.261,34.306 279.684,35.172 C 280.106,36.036 281.153,36.397 282.018,35.975 C 282.884,35.552 283.244,34.505 282.821,33.64 C 282.399,32.774 281.352,32.414 280.487,32.837 Z M 287.756,32.837 C 286.89,33.26 286.53,34.306 286.953,35.172 C 287.375,36.037 288.422,36.397 289.287,35.975 C 290.153,35.552 290.513,34.505 290.091,33.64 C 289.668,32.774 288.621,32.415 287.756,32.837 Z M 283.688,33.387 C 283.543,33.604 283.6,33.898 283.816,34.044 C 284.033,34.191 284.327,34.133 284.474,33.917 C 284.619,33.7 284.562,33.405 284.346,33.26 C 284.129,33.113 283.834,33.17 283.688,33.387 Z M 285.199,33.435 C 285.053,33.651 285.111,33.946 285.327,34.092 C 285.544,34.238 285.839,34.18 285.984,33.964 C 286.13,33.747 286.073,33.452 285.856,33.307 C 285.64,33.161 285.345,33.218 285.199,33.435 Z M 284.02,35.027 C 283.154,35.449 282.794,36.497 283.216,37.362 C 283.639,38.227 284.686,38.587 285.551,38.165 C 286.416,37.742 286.777,36.695 286.354,35.83 C 285.932,34.965 284.885,34.604 284.02,35.027 Z" fill="#ffe7bd" stroke-linejoin="miter" stroke="none" marker-start="none" marker-end="none"/>
  <ellipse rx="4.475" ry="4.474" transform="translate(273.282 38.67) rotate(-25.1221)" stroke-linejoin="miter" stroke="none" fill="#363030"/>
  <path d="M 278.349,34.896 C 280.431,37.693 279.853,41.653 277.056,43.736 C 274.26,45.819 270.299,45.24 268.216,42.444 C 266.133,39.647 266.712,35.687 269.509,33.604 C 272.305,31.521 276.265,32.1 278.349,34.896 Z M 272.567,32.858 C 271.703,33.281 271.342,34.328 271.765,35.193 C 272.187,36.059 273.234,36.419 274.099,35.996 C 274.965,35.574 275.324,34.527 274.902,33.661 C 274.479,32.796 273.433,32.436 272.567,32.858 Z M 268.832,35.048 C 267.966,35.471 267.606,36.518 268.028,37.383 C 268.451,38.249 269.498,38.609 270.363,38.186 C 271.228,37.764 271.589,36.717 271.166,35.851 C 270.744,34.986 269.697,34.626 268.832,35.048 Z M 276.1,35.048 C 275.235,35.471 274.874,36.518 275.297,37.383 C 275.719,38.249 276.766,38.609 277.632,38.186 C 278.497,37.764 278.857,36.717 278.435,35.851 C 278.012,34.986 276.965,34.626 276.1,35.048 Z M 272.134,37.06 C 271.989,37.276 272.046,37.571 272.262,37.717 C 272.479,37.863 272.773,37.806 272.919,37.589 C 273.065,37.372 273.008,37.078 272.791,36.931 C 272.575,36.786 272.28,36.843 272.134,37.06 Z M 273.645,37.107 C 273.5,37.324 273.557,37.619 273.773,37.764 C 273.99,37.91 274.285,37.853 274.431,37.636 C 274.577,37.42 274.519,37.125 274.302,36.98 C 274.086,36.833 273.792,36.891 273.645,37.107 Z M 272.769,38.307 C 272.563,38.581 272.62,38.971 272.894,39.177 C 273.169,39.382 273.558,39.326 273.764,39.051 C 273.969,38.777 273.913,38.387 273.639,38.182 C 273.364,37.976 272.974,38.033 272.769,38.307 Z M 274.424,38.382 C 274.278,38.598 274.335,38.893 274.552,39.039 C 274.768,39.185 275.063,39.127 275.209,38.911 C 275.355,38.695 275.298,38.399 275.081,38.254 C 274.865,38.108 274.57,38.166 274.424,38.382 Z M 271.356,38.429 C 271.21,38.645 271.267,38.941 271.484,39.086 C 271.7,39.232 271.995,39.174 272.141,38.958 C 272.287,38.742 272.23,38.447 272.013,38.301 C 271.797,38.155 271.502,38.213 271.356,38.429 Z M 268.933,39.153 C 268.067,39.576 267.707,40.623 268.129,41.488 C 268.552,42.353 269.599,42.714 270.464,42.291 C 271.33,41.868 271.69,40.821 271.267,39.956 C 270.845,39.091 269.797,38.731 268.933,39.153 Z M 276.202,39.153 C 275.336,39.576 274.976,40.623 275.399,41.488 C 275.821,42.353 276.868,42.714 277.733,42.291 C 278.599,41.869 278.959,40.822 278.537,39.956 C 278.114,39.091 277.067,38.731 276.202,39.153 Z M 272.134,39.704 C 271.989,39.92 272.046,40.215 272.262,40.36 C 272.479,40.507 272.773,40.449 272.919,40.233 C 273.065,40.016 273.008,39.722 272.791,39.576 C 272.575,39.43 272.28,39.487 272.134,39.704 Z M 273.645,39.752 C 273.499,39.968 273.557,40.262 273.773,40.409 C 273.99,40.554 274.285,40.497 274.43,40.281 C 274.576,40.064 274.519,39.769 274.302,39.623 C 274.086,39.477 273.791,39.535 273.645,39.752 Z M 272.466,41.344 C 271.6,41.766 271.24,42.813 271.662,43.678 C 272.085,44.544 273.132,44.904 273.997,44.482 C 274.862,44.059 275.223,43.012 274.8,42.147 C 274.378,41.281 273.33,40.921 272.466,41.344 Z" fill="#ffe7bd" stroke-linejoin="miter" stroke="none" marker-start="none" marker-end="none"/>
  <path d="M 276.448,24.387 C 275.838,23.039 273.457,23.133 272.94,24.801 L 275.217,24.997 L 276.448,24.387 Z" stroke="none" stroke-linejoin="miter" fill="#363030" marker-start="none" marker-end="none"/>
  <ellipse rx="0.632" ry="0.632" transform="translate(273.273 38.68) rotate(-14.1901)" fill="#f1664a" stroke="none" stroke-linejoin="miter"/>
  <ellipse rx="0.482" ry="0.482" transform="translate(272.523 39.971) rotate(-14.2665) skewX(-0.115051)" fill="#f1664a" stroke="none" stroke-linejoin="miter"/>
  <ellipse rx="0.482" ry="0.483" transform="translate(274.043 40.008) rotate(-14.1514)" fill="#f1664a" stroke="none" stroke-linejoin="miter"/>
  <ellipse rx="0.482" ry="0.483" transform="translate(274.82 38.651) rotate(-14.1514)" fill="#f1664a" stroke="none" stroke-linejoin="miter"/>
  <ellipse rx="0.482" ry="0.482" transform="translate(274.043 37.367) rotate(-14.2665) skewX(-0.115051)" fill="#f1664a" stroke="none" stroke-linejoin="miter"/>
  <ellipse rx="0.482" ry="0.482" transform="translate(272.523 37.323) rotate(-14.1514)" fill="#f1664a" stroke="none" stroke-linejoin="miter"/>
  <ellipse rx="0.482" ry="0.483" transform="translate(271.743 38.695) rotate(-14.1514)" fill="#f1664a" stroke="none" stroke-linejoin="miter"/>
  <ellipse rx="0.632" ry="0.632" transform="translate(284.828 32.368) rotate(-14.1901)" fill="#f1664a" stroke="none" stroke-linejoin="miter"/>
  <ellipse rx="0.483" ry="0.482" transform="translate(284.078 33.659) rotate(-14.1224)" fill="#f1664a" stroke="none" stroke-linejoin="miter"/>
  <ellipse rx="0.482" ry="0.483" transform="translate(285.598 33.696) rotate(-14.1514)" fill="#f1664a" stroke="none" stroke-linejoin="miter"/>
  <ellipse rx="0.482" ry="0.482" transform="translate(286.375 32.34) rotate(-14.2665) skewX(-0.115051)" fill="#f1664a" stroke="none" stroke-linejoin="miter"/>
  <ellipse rx="0.482" ry="0.483" transform="translate(285.598 31.055) rotate(-14.1514)" fill="#f1664a" stroke="none" stroke-linejoin="miter"/>
  <ellipse rx="0.483" ry="0.483" transform="translate(284.078 31.011) rotate(-14.1224)" fill="#f1664a" stroke="none" stroke-linejoin="miter"/>
  <ellipse rx="0.482" ry="0.482" transform="translate(283.298 32.384) rotate(-14.2665) skewX(-0.115051)" fill="#f1664a" stroke="none" stroke-linejoin="miter"/>
  <path d="M 265.316,34.875 C 265.288,34.895 265.282,34.937 265.302,34.965 C 265.322,34.993 265.364,34.999 265.392,34.979 C 265.923,34.665 266.416,34.294 266.835,33.84 C 266.276,34.097 265.771,34.463 265.316,34.875 Z" stroke-width="0.5" stroke="none" fill="#f1664a" fill-rule="evenodd" marker-start="none" marker-end="none" fill-opacity="1.000000"/>
  <path d="M 265.249,34.352 C 265.221,34.372 265.215,34.414 265.235,34.442 C 265.255,34.47 265.297,34.476 265.325,34.456 C 265.856,34.141 266.349,33.773 266.768,33.318 C 266.209,33.575 265.705,33.941 265.249,34.352 Z" stroke-width="0.5" stroke="none" fill="#f1664a" fill-rule="evenodd" marker-start="none" marker-end="none" fill-opacity="1.000000"/>
  <path d="M 265.184,33.829 C 265.156,33.849 265.15,33.891 265.17,33.919 C 265.19,33.947 265.232,33.953 265.26,33.933 C 265.791,33.619 266.284,33.248 266.703,32.794 C 266.144,33.051 265.639,33.417 265.184,33.829 Z" stroke-width="0.5" stroke="none" fill="#f1664a" fill-rule="evenodd" marker-start="none" marker-end="none" fill-opacity="1.000000"/>
  <path d="M 265.118,33.306 C 265.09,33.326 265.084,33.368 265.104,33.396 C 265.124,33.424 265.166,33.43 265.194,33.41 C 265.725,33.096 266.218,32.725 266.637,32.271 C 266.078,32.528 265.573,32.894 265.118,33.306 Z" stroke-width="0.5" stroke="none" fill="#f1664a" fill-rule="evenodd" marker-start="none" marker-end="none" fill-opacity="1.000000"/>
  <path d="M 265.051,32.783 C 265.023,32.803 265.017,32.845 265.037,32.873 C 265.057,32.901 265.099,32.907 265.127,32.887 C 265.658,32.572 266.151,32.204 266.571,31.748 C 266.013,32.005 265.505,32.371 265.051,32.783 Z" stroke-width="0.5" stroke="none" fill="#f1664a" fill-rule="evenodd" marker-start="none" marker-end="none" fill-opacity="1.000000"/>
  <path d="M 264.985,32.26 C 264.957,32.28 264.951,32.322 264.971,32.35 C 264.991,32.378 265.033,32.384 265.061,32.364 C 265.592,32.05 266.085,31.679 266.504,31.225 C 265.945,31.482 265.44,31.848 264.985,32.26 Z" stroke-width="0.5" stroke="none" fill="#f1664a" fill-rule="evenodd" marker-start="none" marker-end="none" fill-opacity="1.000000"/>
  <path d="M 264.919,31.736 C 264.891,31.756 264.885,31.798 264.905,31.826 C 264.925,31.854 264.967,31.86 264.995,31.84 C 265.526,31.525 266.019,31.157 266.438,30.702 C 265.879,30.959 265.375,31.325 264.919,31.736 Z" stroke-width="0.5" stroke="none" fill="#f1664a" fill-rule="evenodd" marker-start="none" marker-end="none" fill-opacity="1.000000"/>
  <path d="M 264.854,31.213 C 264.826,31.233 264.82,31.275 264.84,31.303 C 264.86,31.331 264.902,31.337 264.93,31.317 C 265.461,31.003 265.954,30.632 266.373,30.178 C 265.814,30.435 265.309,30.801 264.854,31.213 Z" stroke-width="0.5" stroke="none" fill="#f1664a" fill-rule="evenodd" marker-start="none" marker-end="none" fill-opacity="1.000000"/>
  <path d="M 264.787,30.69 C 264.759,30.71 264.753,30.752 264.773,30.78 C 264.793,30.808 264.835,30.814 264.863,30.794 C 265.394,30.479 265.887,30.111 266.306,29.656 C 265.747,29.913 265.243,30.279 264.787,30.69 Z" stroke-width="0.5" stroke="none" fill="#f1664a" fill-rule="evenodd" marker-start="none" marker-end="none" fill-opacity="1.000000"/>
  <path d="M 275.303,30.168 L 274.786,26.282 L 268.754,27.003 L 269.208,30.873 L 275.303,30.168 Z" fill="#ffe7bd" stroke="none" stroke-linejoin="miter" marker-start="none" marker-end="none"/>
  <ellipse rx="1.551" ry="1.551" transform="translate(272.947 28.578) rotate(35.1342)" stroke="#363030" fill="#f1664a" stroke-linejoin="miter"/>
  <path d="M 273.382,27.464 L 273.124,27.946 L 272.871,28.43 L 272.641,28.923 L 272.511,29.461 L 272.815,28.999 L 273.021,28.494 L 273.204,27.98 L 273.382,27.464 Z" stroke-width="0.5" stroke="none" fill="#ffe7bd" fill-rule="evenodd" marker-start="none" marker-end="none" fill-opacity="1.000000"/>
  <ellipse rx="0.491" ry="0.491" transform="translate(280.107 25.969) rotate(22.4943)" fill="#f1664a" stroke="none" stroke-linejoin="miter"/>
  <ellipse rx="0.428" ry="0.428" transform="translate(278.645 26.119) rotate(22.4965)" fill="#f1664a" stroke="none" stroke-linejoin="miter"/>
  <ellipse rx="0.207" ry="0.208" transform="translate(269.592 30.495) rotate(41.2898) skewX(0.181445)" fill="#363030" stroke-linejoin="miter" stroke="none"/>
  <ellipse rx="0.207" ry="0.208" transform="translate(274.978 29.911) rotate(41.2898) skewX(0.181445)" fill="#363030" stroke-linejoin="miter" stroke="none"/>
  <ellipse rx="0.208" ry="0.207" transform="translate(274.562 26.597) rotate(41.1083) skewX(-0.181445)" fill="#363030" stroke-linejoin="miter" stroke="none"/>
  <ellipse rx="0.207" ry="0.207" transform="translate(269.176 27.273) rotate(40.9005) skewX(-0.389282)" fill="#363030" stroke-linejoin="miter" stroke="none"/>
 </g>
</svg>
