<?xml version="1.0" standalone="no"?>
<!DOCTYPE svg PUBLIC "-//W3C//DTD SVG 1.1//EN" "http://www.w3.org/Graphics/SVG/1.1/DTD/svg11.dtd">
<!--Generator: Xara Designer (www.xara.com), SVG filter version: 6.6.0.9-->
<svg fill="none" fill-rule="evenodd" stroke="black" stroke-width="0.501" stroke-linejoin="bevel" stroke-miterlimit="10" font-family="Times New Roman" font-size="16" style="font-variant-ligatures:none" xmlns:xlink="http://www.w3.org/1999/xlink" xmlns="http://www.w3.org/2000/svg" version="1.1" overflow="visible" width="82.586pt" height="82.586pt" viewBox="147.063 -275.969 82.586 82.586">
 <defs>
  <style type="text/css">@import url('https://themes.googleusercontent.com/fonts/css?family=Open Sans:400,600');</style>
 </defs>
 <g id="Layer 1" transform="scale(1 -1)">
  <ellipse rx="29.253" ry="29.253" transform="translate(188.356 234.676) rotate(-154.872)" fill="#000000" stroke="none" stroke-linejoin="miter"/>
  <path d="M 155.236,210.008 C 141.621,228.288 145.406,254.179 163.688,267.796 C 181.968,281.411 207.859,277.626 221.476,259.344 C 235.091,241.064 231.306,215.173 213.024,201.556 C 194.744,187.941 168.853,191.726 155.236,210.008 Z M 193.03,196.685 C 198.686,199.447 201.041,206.292 198.279,211.948 C 195.517,217.605 188.672,219.96 183.016,217.198 C 177.36,214.435 175.005,207.591 177.767,201.934 C 180.529,196.278 187.374,193.923 193.03,196.685 Z M 217.453,211 C 223.109,213.762 225.464,220.607 222.702,226.263 C 219.94,231.92 213.095,234.275 207.439,231.513 C 201.783,228.75 199.428,221.906 202.19,216.249 C 204.952,210.593 211.797,208.238 217.453,211 Z M 169.937,211.001 C 175.593,213.763 177.948,220.608 175.186,226.264 C 172.424,231.921 165.579,234.276 159.923,231.514 C 154.267,228.751 151.912,221.907 154.674,216.25 C 157.436,210.594 164.281,208.239 169.937,211.001 Z M 195.862,224.15 C 196.814,225.565 196.44,227.492 195.025,228.446 C 193.608,229.4 191.682,229.025 190.728,227.609 C 189.775,226.194 190.15,224.268 191.565,223.313 C 192.981,222.36 194.907,222.734 195.862,224.15 Z M 185.983,224.46 C 186.936,225.875 186.562,227.802 185.146,228.756 C 183.731,229.709 181.804,229.334 180.849,227.919 C 179.896,226.504 180.272,224.577 181.687,223.622 C 183.102,222.669 185.03,223.044 185.983,224.46 Z M 191.713,232.303 C 193.058,234.096 192.689,236.645 190.894,237.989 C 189.1,239.333 186.552,238.964 185.208,237.17 C 183.864,235.376 184.233,232.828 186.027,231.484 C 187.821,230.14 190.37,230.509 191.713,232.303 Z M 180.894,232.792 C 181.848,234.207 181.473,236.134 180.057,237.088 C 178.642,238.041 176.716,237.666 175.761,236.25 C 174.809,234.836 175.183,232.909 176.597,231.955 C 178.013,231.002 179.941,231.376 180.894,232.792 Z M 200.951,233.102 C 201.903,234.516 201.529,236.443 200.115,237.397 C 198.699,238.35 196.771,237.976 195.818,236.56 C 194.864,235.145 195.239,233.218 196.655,232.264 C 198.07,231.311 199.996,231.686 200.951,233.102 Z M 216.793,237.834 C 222.449,240.596 224.804,247.441 222.042,253.097 C 219.28,258.754 212.435,261.109 206.779,258.347 C 201.123,255.584 198.768,248.74 201.53,243.083 C 204.292,237.427 211.137,235.072 216.793,237.834 Z M 169.273,237.836 C 174.929,240.598 177.284,247.443 174.522,253.099 C 171.76,258.756 164.915,261.111 159.259,258.349 C 153.603,255.586 151.248,248.742 154.01,243.085 C 156.772,237.429 163.617,235.074 169.273,237.836 Z M 195.863,241.434 C 196.816,242.849 196.441,244.776 195.026,245.73 C 193.61,246.684 191.684,246.308 190.729,244.893 C 189.778,243.477 190.151,241.551 191.566,240.597 C 192.982,239.644 194.909,240.018 195.863,241.434 Z M 185.985,241.744 C 186.938,243.159 186.563,245.086 185.147,246.04 C 183.732,246.993 181.804,246.619 180.851,245.203 C 179.897,243.788 180.273,241.861 181.688,240.907 C 183.103,239.954 185.031,240.328 185.985,241.744 Z M 193.698,252.154 C 199.354,254.916 201.709,261.761 198.947,267.417 C 196.185,273.074 189.34,275.429 183.684,272.667 C 178.028,269.904 175.673,263.06 178.435,257.403 C 181.197,251.747 188.042,249.392 193.698,252.154 Z" stroke-linejoin="miter" fill="#ffe7bd" stroke="none" marker-start="none" marker-end="none"/>
 </g>
</svg>
