<?xml version="1.0" standalone="no"?>
<!DOCTYPE svg PUBLIC "-//W3C//DTD SVG 1.1//EN" "http://www.w3.org/Graphics/SVG/1.1/DTD/svg11.dtd">
<!--Generator: Xara Designer (www.xara.com), SVG filter version: 6.6.0.9-->
<svg fill="none" fill-rule="evenodd" stroke="black" stroke-width="0.501" stroke-linejoin="bevel" stroke-miterlimit="10" font-family="Times New Roman" font-size="16" style="font-variant-ligatures:none" xmlns:xlink="http://www.w3.org/1999/xlink" xmlns="http://www.w3.org/2000/svg" version="1.1" overflow="visible" width="79.875pt" height="52.123pt" viewBox="218.868 -171.446 79.875 52.123">
 <defs>
  <style type="text/css">@import url('https://themes.googleusercontent.com/fonts/css?family=Open Sans:400,600');</style>
 </defs>
 <g id="Layer 1" transform="scale(1 -1)">
  <path d="M 218.868,119.323 L 218.868,171.446 L 298.743,171.446 L 298.743,119.323 L 218.868,119.323 Z M 225.507,121.469 L 225.507,124.62 C 225.507,125.199 225.036,125.67 224.457,125.67 L 221.198,125.67 C 220.619,125.67 220.148,125.199 220.148,124.62 L 220.148,121.469 C 220.148,120.89 220.619,120.419 221.198,120.419 L 224.457,120.419 C 225.036,120.419 225.507,120.89 225.507,121.469 Z M 297.464,121.469 L 297.464,124.62 C 297.464,125.199 296.993,125.67 296.414,125.67 L 293.155,125.67 C 292.576,125.67 292.105,125.199 292.105,124.62 L 292.105,121.469 C 292.105,120.89 292.576,120.419 293.155,120.419 L 296.414,120.419 C 296.993,120.419 297.464,120.89 297.464,121.469 Z M 225.507,128.925 L 225.507,132.076 C 225.507,132.655 225.036,133.126 224.457,133.126 L 221.198,133.126 C 220.619,133.126 220.148,132.655 220.148,132.076 L 220.148,128.925 C 220.148,128.346 220.619,127.875 221.198,127.875 L 224.457,127.875 C 225.036,127.875 225.507,128.346 225.507,128.925 Z M 297.464,128.925 L 297.464,132.076 C 297.464,132.655 296.993,133.126 296.414,133.126 L 293.155,133.126 C 292.576,133.126 292.105,132.655 292.105,132.076 L 292.105,128.925 C 292.105,128.346 292.576,127.875 293.155,127.875 L 296.414,127.875 C 296.993,127.875 297.464,128.346 297.464,128.925 Z M 225.507,136.368 L 225.507,139.519 C 225.507,140.098 225.036,140.569 224.457,140.569 L 221.198,140.569 C 220.619,140.569 220.148,140.098 220.148,139.519 L 220.148,136.368 C 220.148,135.789 220.619,135.318 221.198,135.318 L 224.457,135.318 C 225.036,135.318 225.507,135.789 225.507,136.368 Z M 297.464,136.368 L 297.464,139.519 C 297.464,140.098 296.993,140.569 296.414,140.569 L 293.155,140.569 C 292.576,140.569 292.105,140.098 292.105,139.519 L 292.105,136.368 C 292.105,135.789 292.576,135.318 293.155,135.318 L 296.414,135.318 C 296.993,135.318 297.464,135.789 297.464,136.368 Z M 225.507,143.812 L 225.507,146.963 C 225.507,147.542 225.036,148.013 224.457,148.013 L 221.198,148.013 C 220.619,148.013 220.148,147.542 220.148,146.963 L 220.148,143.812 C 220.148,143.233 220.619,142.762 221.198,142.762 L 224.457,142.762 C 225.036,142.762 225.507,143.233 225.507,143.812 Z M 297.464,143.812 L 297.464,146.963 C 297.464,147.542 296.993,148.013 296.414,148.013 L 293.155,148.013 C 292.576,148.013 292.105,147.542 292.105,146.963 L 292.105,143.812 C 292.105,143.233 292.576,142.762 293.155,142.762 L 296.414,142.762 C 296.993,142.762 297.464,143.233 297.464,143.812 Z M 225.507,151.256 L 225.507,154.407 C 225.507,154.986 225.036,155.457 224.457,155.457 L 221.198,155.457 C 220.619,155.457 220.148,154.986 220.148,154.407 L 220.148,151.256 C 220.148,150.677 220.619,150.206 221.198,150.206 L 224.457,150.206 C 225.036,150.206 225.507,150.677 225.507,151.256 Z M 297.464,151.256 L 297.464,154.407 C 297.464,154.986 296.993,155.457 296.414,155.457 L 293.155,155.457 C 292.576,155.457 292.105,154.986 292.105,154.407 L 292.105,151.256 C 292.105,150.677 292.576,150.206 293.155,150.206 L 296.414,150.206 C 296.993,150.206 297.464,150.677 297.464,151.256 Z M 225.507,158.711 L 225.507,161.862 C 225.507,162.441 225.036,162.912 224.457,162.912 L 221.198,162.912 C 220.619,162.912 220.148,162.441 220.148,161.862 L 220.148,158.711 C 220.148,158.132 220.619,157.661 221.198,157.661 L 224.457,157.661 C 225.036,157.661 225.507,158.132 225.507,158.711 Z M 297.464,158.711 L 297.464,161.862 C 297.464,162.441 296.993,162.912 296.414,162.912 L 293.155,162.912 C 292.576,162.912 292.105,162.441 292.105,161.862 L 292.105,158.711 C 292.105,158.132 292.576,157.661 293.155,157.661 L 296.414,157.661 C 296.993,157.661 297.464,158.132 297.464,158.711 Z M 225.507,166.155 L 225.507,169.306 C 225.507,169.885 225.036,170.356 224.457,170.356 L 221.198,170.356 C 220.619,170.356 220.148,169.885 220.148,169.306 L 220.148,166.155 C 220.148,165.576 220.619,165.105 221.198,165.105 L 224.457,165.105 C 225.036,165.105 225.507,165.576 225.507,166.155 Z M 297.464,166.155 L 297.464,169.306 C 297.464,169.885 296.993,170.356 296.414,170.356 L 293.155,170.356 C 292.576,170.356 292.105,169.885 292.105,169.306 L 292.105,166.155 C 292.105,165.576 292.576,165.105 293.155,165.105 L 296.414,165.105 C 296.993,165.105 297.464,165.576 297.464,166.155 Z" stroke-linejoin="miter" fill="#000000" stroke="none" marker-start="none" marker-end="none"/>
 </g>
</svg>
