<?xml version="1.0" standalone="no"?>
<!DOCTYPE svg PUBLIC "-//W3C//DTD SVG 1.1//EN" "http://www.w3.org/Graphics/SVG/1.1/DTD/svg11.dtd">
<!--Generator: Xara Designer (www.xara.com), SVG filter version: 6.6.0.9-->
<svg fill="none" fill-rule="evenodd" stroke="black" stroke-width="0.501" stroke-linejoin="bevel" stroke-miterlimit="10" font-family="Times New Roman" font-size="16" style="font-variant-ligatures:none" xmlns:xlink="http://www.w3.org/1999/xlink" xmlns="http://www.w3.org/2000/svg" version="1.1" overflow="visible" width="27.534pt" height="27.042pt" viewBox="140.715 -131.101 27.534 27.042">
 <defs>
  <style type="text/css">@import url('https://themes.googleusercontent.com/fonts/css?family=Open Sans:400,600');</style>
 </defs>
 <g id="Layer 1" transform="scale(1 -1)">
  <g id="Group" stroke-linejoin="miter" stroke="none" fill="#f1664a">
   <path d="M 142.849,116.647 L 143.923,116.893 L 143.724,115.772 C 143.714,116.25 143.327,116.637 142.849,116.647 Z" marker-start="none" marker-end="none"/>
   <path d="M 143.725,105.939 L 143.725,116.978 C 143.725,118.015 144.568,118.858 145.605,118.858 L 163.36,118.858 C 164.397,118.858 165.24,118.015 165.24,116.978 L 165.24,105.939 C 165.24,104.902 164.397,104.059 163.36,104.059 L 157.991,104.059 L 157.991,112.495 C 157.991,113.261 157.368,113.884 156.602,113.884 L 152.363,113.884 C 151.597,113.884 150.974,113.261 150.974,112.495 L 150.974,104.059 L 145.605,104.059 C 144.568,104.059 143.725,104.902 143.725,105.939 Z" marker-start="none" marker-end="none"/>
   <path d="M 155.037,122.32 L 147.808,125.374 L 153.331,130.646 C 153.966,131.252 154.998,131.252 155.633,130.646 L 161.324,125.212 L 155.037,122.32 Z" marker-start="none" marker-end="none"/>
   <path d="M 142.851,116.649 L 166.113,116.648 C 168.422,116.648 168.94,117.942 167.271,119.536 L 157.507,128.856 C 155.838,130.45 153.126,130.45 151.456,128.856 L 141.694,119.537 C 140.024,117.943 140.542,116.649 142.851,116.649 Z" marker-start="none" marker-end="none"/>
   <path d="M 166.113,116.648 L 164.916,116.941 L 165.238,115.773 C 165.248,116.251 165.635,116.638 166.113,116.648 Z" marker-start="none" marker-end="none"/>
  </g>
 </g>
</svg>
